<?xml version="1.0" encoding="UTF-8"?>
<svg xmlns="http://www.w3.org/2000/svg" width="200" height="200" viewBox="0 0 1040 992" fill="none">
  <!-- Cloud + Slash only (no heavy background) -->
  <g fill="#00d4ff" stroke="none">
    <!-- Cloud -->
    <path d="M 464.01 333.02 L 461.55 334.00 L 458.69 334.01 L 455.87 334.12 L 453.37 334.99 L 450.51 335.00 L 448.03 335.95 L 445.19 335.99 L 442.76 337.04 L 439.88 337.01 L 437.31 337.73 L 434.68 338.28 L 432.10 338.97 L 429.69 340.06 L 427.16 340.88 L 424.54 341.46 L 421.93 342.07 L 419.60 343.37 L 417.00 344.01 L 414.52 344.94 L 412.11 346.03 L 409.75 347.24 L 407.43 348.57 L 405.11 349.87 L 402.71 350.99 L 400.26 352.01 L 397.85 353.08 L 395.77 354.99 L 393.32 356.00 L 390.90 357.06 L 388.84 359.01 L 386.61 360.54 L 384.26 361.77 L 381.92 363.05 L 379.86 364.99 L 377.60 366.44 L 375.60 368.53 L 373.21 369.68 L 371.21 371.77 L 369.22 373.88 L 366.87 375.13 L 364.85 377.15 L 362.82 379.18 L 360.80 381.20 L 358.77 383.23 L 356.75 385.25 L 354.72 387.28 L 352.71 389.31 L 351.00 391.47 L 349.35 393.65 L 347.98 395.94 L 345.99 397.98 L 344.78 400.35 L 342.59 402.30 L 341.33 404.65 L 340.05 406.98 L 338.04 409.01 L 336.99 411.44 L 335.25 413.59 L 334.08 415.97 L 332.99 418.38 L 331.30 420.54 L 330.10 422.91 L 328.95 425.30 L 328.15 427.83 L 327.01 430.23 L 326.00 432.67 L 325.02 435.13 L 323.94 437.55 L 323.04 440.04 L 321.94 442.44 L 321.05 444.94 L 320.44 447.55 L 319.86 450.18 L 319.06 452.71 L 317.97 455.13 L 317.27 457.70 L 317.00 460.45 L 316.07 462.93 L 316.01 465.77 L 314.96 468.20 L 314.99 471.08 L 314.39 473.68 L 312.03 475.02 L 309.15 474.99 L 306.72 476.05 L 303.83 475.96 L 301.41 477.05 L 298.50 476.94 L 296.08 478.01 L 293.65 479.07 L 291.13 479.90 L 288.51 480.48 L 285.90 481.09 L 283.58 482.40 L 281.27 483.75 L 278.91 484.96 L 276.47 486.00 L 274.05 487.05 L 271.69 488.29 L 269.34 489.52 L 267.09 491.00 L 265.04 492.97 L 262.75 494.37 L 260.36 495.51 L 258.41 497.72 L 256.05 498.92 L 254.03 500.98 L 251.67 502.20 L 249.69 504.32 L 247.66 506.33 L 245.64 508.37 L 243.61 510.39 L 241.58 512.41 L 239.56 514.44 L 237.44 516.43 L 236.27 518.81 L 234.12 520.78 L 232.83 523.11 L 231.68 525.50 L 230.01 527.67 L 228.12 529.75 L 226.85 532.09 L 225.59 534.43 L 224.24 536.74 L 223.02 539.10 L 221.53 541.34 L 220.98 543.98 L 219.70 546.32 L 218.36 548.63 L 217.79 551.25 L 217.05 553.81 L 216.04 556.26 L 215.00 558.69 L 213.97 561.13 L 213.27 563.70 L 213.07 566.48 L 211.97 568.89 L 212.04 571.78 L 210.99 574.22 L 211.03 577.10 L 209.94 579.51 L 210.00 582.40 L 210.00 585.26 L 210.04 588.14 L 208.94 590.55 L 209.00 593.44 L 209.00 596.31 L 208.96 599.18 L 210.06 601.59 L 209.98 604.49 L 210.00 607.35 L 210.01 610.21 L 210.09 613.04 L 211.00 615.53 L 211.26 618.29 L 212.00 620.84 L 212.49 623.50 L 212.95 626.18 L 214.06 628.58 L 215.01 631.05 L 215.68 633.64 L 216.23 636.28 L 216.96 638.84 L 217.95 641.29 L 219.00 643.72 L 219.97 646.19 L 221.00 648.62 L 222.09 651.04 L 223.36 653.37 L 224.71 655.68 L 226.01 658.01 L 227.21 660.37 L 229.00 662.50 L 230.79 664.62 L 231.98 666.99 L 233.19 669.35 L 235.00 671.47 L 236.67 673.64 L 238.75 675.64 L 239.92 678.02 L 242.05 680.00 L 244.04 682.06 L 246.06 684.06 L 248.11 686.09 L 250.18 687.97 L 252.43 689.46 L 254.48 691.44 L 256.69 693.00 L 258.81 694.81 L 261.14 696.09 L 263.13 698.20 L 265.47 699.47 L 267.82 700.72 L 270.11 702.11 L 272.47 703.31 L 274.64 704.99 L 277.05 706.09 L 279.38 707.37 L 281.69 708.71 L 284.04 709.98 L 286.89 710.02 L 288.94 708.05 L 290.96 706.02 L 292.28 703.65 L 294.74 702.52 L 295.89 700.05 L 298.24 698.74 L 300.27 696.74 L 302.29 694.70 L 304.32 692.68 L 306.35 690.65 L 308.37 688.63 L 310.40 686.60 L 312.42 684.58 L 314.45 682.55 L 316.47 680.53 L 318.50 678.50 L 320.52 676.48 L 322.55 674.45 L 324.58 672.42 L 326.60 670.40 L 328.63 668.37 L 330.61 666.25 L 332.19 664.71 L 334.39 662.73 L 333.55 660.96 L 330.69 661.00 L 327.82 661.01 L 324.97 660.99 L 322.09 661.01 L 319.47 660.44 L 316.76 660.05 L 314.36 658.94 L 311.62 658.63 L 309.03 657.98 L 306.69 656.71 L 304.38 655.38 L 301.72 654.87 L 299.63 653.01 L 297.19 651.99 L 295.12 650.06 L 292.81 648.72 L 290.43 647.56 L 288.44 645.44 L 286.42 643.42 L 284.39 641.39 L 282.36 639.37 L 280.24 637.38 L 279.03 635.02 L 277.79 632.67 L 275.60 630.71 L 274.35 628.36 L 273.08 626.02 L 272.00 623.61 L 270.97 621.17 L 269.94 618.73 L 269.15 616.19 L 268.59 613.56 L 268.04 610.92 L 266.94 608.52 L 267.00 605.63 L 266.99 602.77 L 266.20 600.23 L 266.01 597.45 L 265.99 594.58 L 266.02 591.73 L 266.10 588.90 L 266.99 586.40 L 266.94 583.52 L 268.05 581.11 L 268.55 578.46 L 268.94 575.75 L 270.05 573.35 L 270.98 570.87 L 272.00 568.43 L 273.06 566.00 L 274.23 563.62 L 276.05 561.51 L 276.96 559.02 L 278.95 556.98 L 280.26 554.66 L 282.35 552.66 L 284.38 550.64 L 286.39 548.61 L 288.40 546.58 L 290.46 544.56 L 292.42 542.43 L 294.81 541.27 L 296.79 539.13 L 299.18 538.00 L 301.40 536.44 L 303.76 535.22 L 306.13 534.03 L 308.57 533.00 L 311.02 532.00 L 313.44 530.93 L 315.95 530.06 L 318.80 530.03 L 321.23 528.99 L 324.07 528.93 L 326.55 528.00 L 329.41 527.99 L 332.21 527.82 L 334.73 527.00 L 337.59 527.00 L 340.46 527.00 L 343.32 527.00 L 346.19 527.00 L 349.05 527.00 L 351.92 527.00 L 354.78 527.00 L 357.65 527.00 L 360.51 527.00 L 363.37 527.00 L 366.23 526.90 L 367.00 524.31 L 367.00 521.45 L 366.03 518.99 L 366.00 516.13 L 366.00 513.27 L 366.00 510.40 L 366.00 507.54 L 366.00 504.68 L 366.12 501.86 L 367.01 499.36 L 367.00 496.50 L 366.94 493.61 L 368.04 491.20 L 368.01 488.32 L 368.37 485.61 L 369.00 483.00 L 369.62 480.39 L 369.94 477.66 L 371.06 475.26 L 371.44 472.56 L 372.05 469.94 L 372.93 467.45 L 374.00 465.02 L 375.00 462.57 L 376.02 460.13 L 377.00 457.67 L 378.01 455.23 L 379.16 452.84 L 380.48 450.52 L 381.80 448.20 L 382.98 445.83 L 384.01 443.39 L 385.85 441.29 L 387.09 438.94 L 388.29 436.57 L 390.50 434.62 L 391.67 432.24 L 393.74 430.23 L 395.07 427.92 L 397.13 425.92 L 399.12 423.86 L 401.15 421.84 L 403.19 419.84 L 405.21 417.80 L 407.19 415.68 L 409.58 414.52 L 411.58 412.45 L 413.85 411.00 L 415.91 409.07 L 418.27 407.86 L 420.37 405.99 L 422.53 404.30 L 424.90 403.12 L 427.31 402.01 L 429.75 400.99 L 432.14 399.85 L 434.46 398.54 L 436.78 397.21 L 439.13 395.98 L 441.70 395.26 L 444.33 394.70 L 446.91 394.02 L 449.38 393.05 L 451.78 391.95 L 454.48 391.53 L 457.14 391.05 L 459.55 389.94 L 462.43 389.99 L 464.92 389.08 L 467.75 389.01 L 470.62 389.00 L 473.48 389.00 L 476.37 389.06 L 478.78 387.96 L 481.65 388.00 L 484.38 388.35 L 486.98 388.99 L 489.84 389.00 L 492.70 389.01 L 495.41 389.39 L 498.02 389.99 L 500.89 389.99 L 503.33 391.00 L 506.14 391.12 L 508.65 391.99 L 511.09 393.00 L 513.95 393.02 L 516.30 394.26 L 518.87 394.97 L 521.33 395.95 L 523.75 397.04 L 526.21 398.00 L 528.66 399.00 L 531.07 400.10 L 533.40 401.39 L 535.75 402.63 L 538.02 404.06 L 540.40 405.24 L 542.54 406.99 L 544.97 408.03 L 547.03 409.99 L 549.32 411.35 L 551.32 413.44 L 553.71 414.60 L 555.71 416.68 L 558.01 418.03 L 560.05 420.05 L 562.10 422.03 L 564.33 420.50 L 566.03 419.01 L 568.04 417.61 L 569.65 415.37 L 571.66 413.34 L 573.68 411.31 L 575.71 409.29 L 577.74 407.26 L 579.77 405.24 L 581.79 403.21 L 583.81 401.19 L 585.84 399.16 L 587.86 397.13 L 589.89 395.11 L 591.92 393.09 L 593.93 391.03 L 596.02 389.68 L 597.60 387.45 L 599.86 385.99 L 601.26 383.81 L 601.54 381.42 L 599.44 379.43 L 597.40 377.44 L 595.14 376.00 L 593.08 374.06 L 591.05 372.04 L 588.69 370.81 L 586.73 368.63 L 584.35 367.47 L 582.40 365.26 L 580.03 364.05 L 577.68 362.83 L 575.57 361.01 L 573.13 359.99 L 571.07 358.04 L 568.77 356.66 L 566.42 355.42 L 564.10 354.12 L 561.70 353.01 L 559.25 351.99 L 557.18 350.07 L 554.54 349.53 L 552.22 348.21 L 549.85 347.02 L 547.43 345.94 L 544.95 345.03 L 542.54 343.94 L 540.03 343.06 L 537.64 341.94 L 535.12 341.09 L 532.50 340.51 L 529.83 340.05 L 527.42 338.94 L 524.66 338.68 L 522.08 338.01 L 519.63 337.00 L 516.83 336.85 L 514.32 336.00 L 511.61 335.63 L 509.00 335.01 L 506.13 335.02 L 503.69 334.00 L 500.82 334.00 L 497.95 334.03 L 495.53 332.94 L 492.65 333.00 L 489.78 333.00 L 486.92 333.00 L 484.05 333.00 L 481.19 333.00 L 478.32 333.00 L 475.46 333.00 L 472.59 333.00 L 469.73 333.00 L 466.86 333.00 L 464.01 333.02 Z"/>

    <!-- Slash -->
    <path d="M 870.98 186.03 L 866.87 190.29 L 862.96 194.02 L 858.98 197.71 L 854.97 201.43 L 850.40 205.46 L 845.80 210.18 L 841.18 214.83 L 836.54 219.45 L 831.91 224.08 L 826.98 228.00 L 822.35 232.65 L 817.72 237.28 L 813.08 241.91 L 808.45 246.55 L 804.01 250.68 L 799.28 254.62 L 794.67 259.33 L 790.04 263.96 L 785.41 268.59 L 780.97 272.68 L 776.27 276.74 L 771.63 281.37 L 767.00 286.00 L 762.37 290.64 L 757.73 295.27 L 753.10 299.90 L 748.47 304.53 L 743.83 309.17 L 739.02 313.13 L 735.14 317.00 L 730.47 321.53 L 725.84 326.16 L 721.20 330.80 L 716.57 335.43 L 711.94 340.06 L 707.03 344.03 L 702.38 348.62 L 697.75 353.25 L 693.11 357.89 L 688.48 362.52 L 683.84 367.14 L 679.47 371.00 L 674.70 375.30 L 670.07 379.93 L 665.44 384.56 L 660.80 389.20 L 655.88 393.12 L 651.25 397.76 L 646.61 402.39 L 641.98 407.02 L 637.09 411.02 L 632.99 415.20 L 629.08 419.04 L 624.82 423.20 L 620.18 427.82 L 615.55 432.46 L 610.91 437.07 L 605.97 440.97 L 601.35 445.64 L 596.72 450.28 L 592.08 454.90 L 587.78 458.98 L 583.33 462.57 L 578.72 467.28 L 574.09 471.91 L 569.46 476.54 L 564.83 481.18 L 559.90 485.09 L 555.27 489.73 L 550.63 494.37 L 545.99 498.99 L 541.64 502.98 L 537.98 506.99 L 533.05 510.95 L 528.42 515.58 L 523.79 520.21 L 519.15 524.85 L 514.56 529.57 L 509.59 533.40 L 504.96 538.04 L 500.33 542.67 L 495.69 547.30 L 491.06 551.94 L 486.12 555.82 L 481.92 560.07 L 477.29 564.72 L 472.65 569.35 L 468.01 573.97 L 463.72 578.01 L 458.87 582.12 L 454.24 586.76 L 449.61 591.39 L 444.97 596.02 L 440.34 600.66 L 435.71 605.29 L 430.99 609.26 L 426.57 613.44 L 421.93 618.07 L 417.30 622.70 L 412.67 627.33 L 408.03 631.97 L 403.40 636.60 L 398.80 641.30 L 394.23 644.68 L 390.05 649.02 L 385.80 653.15 L 381.18 657.81 L 376.55 662.44 L 371.92 667.08 L 367.76 671.30 L 362.78 675.23 L 358.14 679.86 L 353.51 684.49 L 348.88 689.12 L 344.24 693.76 L 339.61 698.39 L 334.98 703.02 L 330.34 707.66 L 325.71 712.29 L 321.08 716.92 L 316.44 721.56 L 311.81 726.19 L 307.18 730.82 L 302.55 735.45 L 297.91 740.09 L 293.32 744.80 L 289.07 748.95 L 284.86 753.20 L 280.31 756.60 L 276.86 761.18 L 272.19 765.86 L 268.00 769.47 L 263.75 774.25 L 259.11 778.88 L 254.48 783.52 L 249.86 788.16 L 250.07 788.88 L 255.02 785.04 L 259.92 781.06 L 264.86 777.15 L 269.78 773.21 L 274.70 769.28 L 279.62 765.34 L 284.59 761.53 L 289.52 757.61 L 294.45 753.68 L 299.37 749.75 L 304.02 745.68 L 308.44 741.43 L 313.42 737.62 L 318.34 733.68 L 323.26 729.75 L 328.19 725.83 L 333.10 721.87 L 338.04 717.98 L 342.97 714.07 L 347.84 709.99 L 352.73 706.00 L 357.41 701.47 L 362.53 698.00 L 367.42 694.00 L 372.55 690.57 L 377.48 686.65 L 382.40 682.72 L 387.33 678.79 L 392.25 674.84 L 397.16 670.89 L 401.75 666.16 L 406.67 662.22 L 411.88 658.98 L 416.52 654.35 L 421.49 650.54 L 426.37 646.51 L 431.34 642.69 L 436.26 638.75 L 441.16 634.76 L 446.10 630.85 L 451.05 626.99 L 455.96 623.04 L 460.87 619.07 L 465.79 615.13 L 470.74 611.27 L 475.67 607.35 L 480.60 603.42 L 485.52 599.50 L 490.45 595.57 L 495.37 591.63 L 500.29 587.70 L 505.25 583.86 L 509.63 580.00 L 514.52 576.00 L 519.41 572.00 L 524.31 568.00 L 529.20 564.01 L 534.10 560.02 L 539.32 556.79 L 543.92 552.07 L 548.83 548.11 L 553.75 544.16 L 558.70 540.31 L 563.63 536.39 L 568.55 532.45 L 573.47 528.51 L 578.40 524.60 L 583.32 520.66 L 588.25 516.74 L 593.18 512.82 L 598.11 508.92 L 603.02 504.95 L 607.93 500.98 L 612.83 496.99 L 617.83 493.25 L 622.63 489.00 L 627.52 485.00 L 632.41 481.00 L 637.31 477.00 L 642.21 473.01 L 647.11 469.02 L 651.99 464.98 L 656.93 461.09 L 661.84 457.14 L 667.07 453.95 L 672.29 450.71 L 677.70 447.96 L 683.41 445.93 L 689.58 445.01 L 696.13 445.00 L 702.67 445.01 L 708.57 446.59 L 714.09 449.08 L 718.98 453.01 L 722.29 458.21 L 724.05 464.04 L 726.05 469.76 L 726.01 476.33 L 726.04 482.90 L 724.95 489.00 L 723.18 494.82 L 721.37 500.62 L 720.05 506.63 L 717.07 511.94 L 715.25 517.74 L 713.00 523.36 L 710.24 528.77 L 707.72 534.28 L 704.98 539.70 L 702.07 545.04 L 703.74 548.99 L 710.29 549.00 L 716.84 549.00 L 723.39 549.00 L 729.94 549.02 L 735.76 550.77 L 741.82 551.98 L 747.13 554.95 L 752.83 557.01 L 757.78 560.88 L 763.02 564.05 L 767.66 568.66 L 772.00 573.42 L 776.00 578.31 L 779.01 583.62 L 781.94 588.96 L 784.05 594.63 L 785.00 600.79 L 785.99 606.94 L 786.00 613.48 L 786.00 620.04 L 784.98 626.17 L 783.80 632.23 L 781.95 638.02 L 779.45 643.53 L 776.24 648.75 L 772.97 653.95 L 768.40 658.61 L 764.24 663.00 L 759.22 666.69 L 754.37 670.79 L 748.72 672.98 L 743.02 675.02 L 737.26 676.95 L 731.14 677.99 L 725.01 679.00 L 718.46 679.00 L 711.91 679.00 L 705.35 679.00 L 698.80 679.00 L 692.25 679.00 L 685.70 679.00 L 679.15 679.00 L 672.59 679.00 L 666.04 679.00 L 659.49 679.00 L 652.94 679.00 L 646.39 679.00 L 639.83 679.00 L 633.28 679.00 L 626.73 679.00 L 620.18 679.00 L 613.63 679.00 L 607.07 679.00 L 600.52 679.00 L 593.97 679.00 L 587.42 679.00 L 580.87 679.00 L 574.31 679.00 L 567.76 679.00 L 561.21 679.00 L 554.66 679.00 L 548.11 679.00 L 541.55 679.00 L 535.00 679.00 L 528.45 679.00 L 521.90 679.00 L 515.35 679.00 L 508.79 679.00 L 502.24 679.00 L 495.69 679.00 L 489.14 679.00 L 482.59 679.00 L 476.03 679.00 L 469.48 679.00 L 462.93 679.00 L 456.38 679.00 L 449.83 679.00 L 443.45 679.43 L 438.52 683.35 L 433.92 688.06 L 429.01 692.01 L 424.06 695.90 L 419.13 699.80 L 414.32 704.01 L 409.58 708.38 L 404.67 712.34 L 400.03 716.95 L 395.11 720.90 L 390.16 724.77 L 385.54 729.44 L 380.56 733.34 L 384.67 735.00 L 391.22 735.00 L 397.78 735.00 L 404.33 735.00 L 410.88 735.00 L 417.43 735.00 L 423.98 735.00 L 430.54 735.00 L 437.09 735.00 L 443.64 735.00 L 450.19 735.00 L 456.74 735.00 L 463.30 735.00 L 469.85 735.00 L 476.40 735.00 L 482.95 735.00 L 489.50 735.00 L 496.06 735.00 L 502.61 735.00 L 509.16 735.00 L 515.71 735.00 L 522.26 735.00 L 528.82 735.00 L 535.37 735.00 L 541.92 735.00 L 548.47 735.00 L 555.02 735.00 L 561.58 735.00 L 568.13 735.00 L 574.68 735.00 L 581.23 735.00 L 587.78 735.00 L 594.34 735.00 L 600.89 735.00 L 607.44 735.00 L 613.99 735.00 L 620.54 735.00 L 627.10 735.00 L 633.65 735.00 L 640.20 735.00 L 646.75 735.00 L 653.30 735.00 L 659.86 735.00 L 666.41 735.00 L 672.96 735.00 L 679.51 735.00 L 686.06 735.00 L 692.62 735.00 L 699.17 735.00 L 705.72 735.00 L 712.27 735.00 L 718.82 735.00 L 725.38 735.00 L 731.93 735.00 L 738.06 733.97 L 744.19 732.97 L 750.34 732.00 L 756.34 730.66 L 762.15 728.88 L 767.92 726.99 L 773.22 723.97 L 778.93 721.94 L 784.19 718.81 L 789.46 715.71 L 794.30 711.59 L 799.37 707.99 L 804.19 703.82 L 808.82 699.18 L 813.44 694.54 L 817.36 689.62 L 821.38 684.73 L 824.64 679.52 L 827.73 674.26 L 830.26 668.75 L 833.01 663.34 L 835.25 657.71 L 837.78 652.21 L 838.97 646.15 L 841.05 640.46 L 842.00 634.30 L 842.99 628.16 L 843.00 621.61 L 843.99 615.47 L 843.99 608.93 L 842.99 602.79 L 843.01 596.22 L 842.02 590.09 L 840.94 583.98 L 838.97 578.25 L 837.00 572.51 L 834.83 566.86 L 832.33 561.34 L 829.81 555.83 L 826.61 550.60 L 823.47 545.35 L 819.44 540.47 L 815.53 535.54 L 811.96 531.07 L 807.51 527.50 L 802.83 523.01 L 797.96 518.93 L 793.02 515.05 L 787.83 511.75 L 782.42 508.99 L 777.95 504.54 L 778.95 498.37 L 780.93 492.63 L 783.04 486.96 L 784.14 480.86 L 786.04 475.09 L 786.98 468.93 L 787.43 462.56 L 788.00 456.25 L 788.00 449.70 L 788.00 443.15 L 788.00 436.59 L 786.94 430.48 L 787.00 423.90 L 786.01 417.76 L 784.95 411.65 L 785.03 405.07 L 784.00 398.94 L 784.00 392.39 L 784.00 385.84 L 784.00 379.28 L 783.95 372.71 L 785.00 366.59 L 786.00 360.45 L 786.79 354.23 L 787.87 348.13 L 789.05 342.06 L 789.96 335.89 L 792.06 330.21 L 793.70 324.33 L 795.48 318.52 L 797.27 312.71 L 800.04 307.30 L 802.30 301.69 L 804.83 296.18 L 807.00 290.53 L 809.82 285.15 L 812.35 279.64 L 815.03 274.20 L 818.11 268.92 L 820.99 263.57 L 824.00 258.26 L 827.08 252.98 L 830.24 247.74 L 833.47 242.53 L 836.60 237.27 L 840.02 232.14 L 843.09 226.86 L 846.96 221.91 L 850.35 216.76 L 853.98 211.71 L 857.00 206.41 L 860.56 201.33 L 864.56 196.44 L 868.00 191.31 L 870.98 186.03 Z"/>
  </g>
</svg>